<?xml version="1.0" standalone="no"?>
<!DOCTYPE svg PUBLIC "-//W3C//DTD SVG 20010904//EN"
 "http://www.w3.org/TR/2001/REC-SVG-20010904/DTD/svg10.dtd">
<svg version="1.0" xmlns="http://www.w3.org/2000/svg"
 width="70.000000pt" height="70.000000pt" viewBox="0 0 70.000000 70.000000"
 preserveAspectRatio="xMidYMid meet">
<metadata>
Created by potrace 1.11, written by Peter Selinger 2001-2013
</metadata>
<g transform="translate(0.000000,70.000000) scale(0.100000,-0.100000)"
fill="#000000" stroke="none">
<path d="M323 689 c-7 -7 -13 -10 -13 -6 0 3 -18 0 -39 -8 -22 -7 -42 -11 -45
-8 -3 4 -6 -3 -6 -13 0 -11 -5 -25 -10 -30 -15 -15 -30 -117 -19 -130 6 -7 4
-16 -4 -23 -18 -14 -10 -57 12 -74 55 -39 66 -127 16 -127 -41 0 -109 -38
-129 -71 -20 -33 -29 -151 -14 -181 8 -17 32 -18 279 -18 320 0 289 -17 280
157 -2 48 -86 113 -147 113 -47 0 -37 93 13 123 24 15 32 50 17 79 -8 16 -10
29 -5 33 13 7 2 71 -20 121 -19 42 -14 40 -134 70 -11 3 -26 0 -32 -7z"/>
</g>
</svg>
